<?xml version="1.0" standalone="no"?>
<!DOCTYPE svg PUBLIC "-//W3C//DTD SVG 20010904//EN"
 "http://www.w3.org/TR/2001/REC-SVG-20010904/DTD/svg10.dtd">
<svg version="1.0" xmlns="http://www.w3.org/2000/svg"
 width="512.000000pt" height="512.000000pt" viewBox="0 0 512.000000 512.000000"
 preserveAspectRatio="xMidYMid meet">
<metadata>
Created by potrace 1.11, written by Peter Selinger 2001-2013
</metadata>
<g transform="translate(0.000000,512.000000) scale(0.100000,-0.100000)"
fill="#000000" stroke="none">
<path d="M2290 5109 c-481 -51 -954 -247 -1340 -556 -379 -303 -688 -757 -834
-1224 -80 -256 -114 -486 -114 -764 0 -371 58 -666 195 -995 310 -744 986
-1320 1760 -1500 232 -55 339 -65 643 -64 193 0 258 4 365 22 262 45 501 122
734 238 663 328 1149 926 1341 1649 69 260 97 602 71 881 -64 691 -410 1333
-952 1764 -377 301 -818 486 -1297 544 -121 15 -451 18 -572 5z"/>
</g>
</svg>
